# xmcd
#
# Track frame offsets: 
#        150
#        18411
#        36575
#        51719
#        71221
#        93395
#        116871
#        137132
#        157816
#        182439
#        206905
#        223759
#        238548
#        255768
#        270503
#        280773
#
# Disc length: 3933 seconds
#
# Revision: 0
# Processed by: cddbd v1.5.2PL0 Copyright (c) Steve Scherf et al.
# Submitted via: ExactAudioCopyFreeDBPlugin 1.0
#
DISCID=f10f5b10
DTITLE=Ana Popovic - Morning (part 1) - Mid-Day (part 2)
DYEAR=2016
DGENRE=Blues
TTITLE0=Love You Tonight
TTITLE1=She Was A Doorman
TTITLE2=Show You How Strong You Are
TTITLE3=Fencewalk
TTITLE4=Train
TTITLE5=If Tomorrow Was Today
TTITLE6=Long Road Down
TTITLE7=Hook Me Up
TTITLE8=Too Late
TTITLE9=You Got The Love
TTITLE10=Johnnie Ray
TTITLE11=Woman To Love
TTITLE12=Let's Do It Again
TTITLE13=Who's Yo' Mama?
TTITLE14=Wasted
TTITLE15=Crying For Me
EXTD=
EXTT0=
EXTT1=
EXTT2=
EXTT3=
EXTT4=
EXTT5=
EXTT6=
EXTT7=
EXTT8=
EXTT9=
EXTT10=
EXTT11=
EXTT12=
EXTT13=
EXTT14=
EXTT15=
PLAYORDER=
